<svg xmlns="http://www.w3.org/2000/svg" width="1200" height="630" viewBox="0 0 1200 630" role="img" aria-labelledby="title desc">
  <title id="title">VideoToSRT social preview</title>
  <desc id="desc">A dark VideoToSRT preview card with subtitle editor panels.</desc>
  <rect width="1200" height="630" fill="#0F172A"/>
  <rect x="72" y="70" width="1056" height="490" rx="8" fill="#111C32" stroke="#2A3852"/>
  <rect x="112" y="112" width="76" height="76" rx="8" fill="#6366F1"/>
  <text x="150" y="160" fill="#FFFFFF" font-family="Inter, Arial, sans-serif" font-size="28" font-weight="800" text-anchor="middle">VS</text>
  <text x="220" y="146" fill="#F8FAFC" font-family="Inter, Arial, sans-serif" font-size="34" font-weight="800">VideoToSRT</text>
  <text x="112" y="250" fill="#F8FAFC" font-family="Inter, Arial, sans-serif" font-size="66" font-weight="800">Generate, edit, export</text>
  <text x="112" y="326" fill="#22D3EE" font-family="Inter, Arial, sans-serif" font-size="66" font-weight="800">accurate SRT subtitles.</text>
  <text x="112" y="400" fill="#CBD5E1" font-family="Inter, Arial, sans-serif" font-size="30" font-weight="500">AI transcription plus a focused browser editor.</text>
  <rect x="744" y="130" width="320" height="260" rx="8" fill="#17233A" stroke="#2A3852"/>
  <rect x="784" y="172" width="240" height="134" rx="8" fill="#0F172A" stroke="#2A3852"/>
  <rect x="814" y="260" width="180" height="36" rx="8" fill="#1D2A44"/>
  <text x="904" y="283" fill="#F8FAFC" font-family="Inter, Arial, sans-serif" font-size="16" font-weight="700" text-anchor="middle">Clean subtitles, ready.</text>
  <rect x="784" y="330" width="88" height="18" rx="4" fill="#22D3EE"/>
  <rect x="886" y="330" width="64" height="18" rx="4" fill="#6366F1"/>
  <rect x="964" y="330" width="38" height="18" rx="4" fill="#34D399"/>
  <rect x="112" y="462" width="180" height="54" rx="8" fill="#6366F1"/>
  <text x="202" y="497" fill="#FFFFFF" font-family="Inter, Arial, sans-serif" font-size="20" font-weight="800" text-anchor="middle">Start free</text>
</svg>
